<svg width="550.54" height="393.97" viewBox="0 0 550.54 393.97" xmlns="http://www.w3.org/2000/svg"><g transform="translate(-52.93 -153.02)"><rect x="52.93" y="153.02" width="550.54" height="393.97" fill="#f0f4f9" rx="20"/><g transform="translate(150 120)"><path d="M118.83,261.1,89.18,231.45a27.46,27.46,0,0,1,0-38.83l29.65-29.65a27.46,27.46,0,0,1,38.83,0l29.65,29.65a27.46,27.46,0,0,1,0,38.83l-29.65,29.65a27.46,27.46,0,0,1-38.83,0Z" fill="#4f46e5"/><path d="M207.11,349.38,177.46,319.7a27.46,27.46,0,0,1,0-38.83l29.65-29.65a27.46,27.46,0,0,1,38.83,0l29.65,29.65a27.46,27.46,0,0,1,0,38.83l-29.65,29.65a27.46,27.46,0,0,1-38.83,0Z" fill="#a5b4fc"/><rect x="100" y="280" width="200" height="150" rx="15" fill="#fff"/><rect x="120" y="300" width="160" height="20" rx="5" fill="#e0e7ff"/><rect x="120" y="335" width="160" height="10" rx="5" fill="#e0e7ff"/><rect x="120" y="355" width="100" height="10" rx="5" fill="#e0e7ff"/><rect x="150" y="380" width="100" height="30" rx="8" fill="#4f46e5"/></g></g></svg>
